<svg version="1" xmlns="http://www.w3.org/2000/svg" width="533.333" height="533.333" viewBox="0 0 400.000000 400.000000"><path d="M165.6.8c-.3.5-3.4 1.2-6.8 1.5-9 .8-34.9 7.7-37.2 9.8-.6.5-1.6.9-2.3.9-3 0-16.8 7.3-29.8 15.9-8 5.3-24.4 21-30.2 29.1C51 69.6 44.5 82.4 41.2 94c-2 7-2.2 33.2-.4 44.5 1.6 9.8 4.1 22.1 5.2 25.5.4 1.4 1.5 5.2 2.5 8.6 1.3 4.7 2.8 7.1 6.4 10.7 4.7 4.7 6.2 7.2 10.1 16.7 4.3 10.3 5.1 14.9 3.9 22-.9 5.7-2.1 9.9-6.9 24.7-3.7 11.3-4.2 14.7-2.9 22.3 2.2 13.7 5.5 16.4 19.1 15.9 6.8-.3 9-.8 10.8-2.4 4-3.6 22.7-3 31.5 1 1.7.7 4.3 2.7 5.9 4.4 2.8 2.9 2.8 3.2 2.2 10.3-.7 7.8-.4 8.8 3.1 10.7 4.3 2.2 5.7.7 7.3-8 1.1-5.4 3.6-8.5 5.7-6.8 2.2 1.9 2.5 8.4.6 13.8-2.1 5.9-1.3 8 3.3 9.6 1.6.5 4.6 2 6.7 3.2 4.8 2.9 8.4 3 9.2.3.3-1 .9-4.8 1.3-8.2.6-5.5 1-6.3 3-6.6 2.1-.3 2.2 0 2.2 5.6 0 5.5.3 6.3 3.1 8.6 3.4 2.9 5.5 3.2 9.4 1.4 3.6-1.6 5.5-5.7 5.6-12 0-2.9.4-6.2.9-7.3l.8-2 .7 2c.4 1.1 1.8 4.4 3.1 7.4 1.3 2.9 2.4 6.2 2.4 7.3 0 5.6 4.4 7.6 11.1 5.3 4.7-1.7 5.9-2.9 5.9-6.2 0-3.8 2.1-3.7 6.3.5 4.9 4.6 8.4 5.8 11.4 3.7 1.8-1.2 2.1-2.8 2.5-10.7.3-6.8.9-10 2.2-12.1 3.6-5.4 6.3-2.5 7.6 8 1 7.6 2.9 10.3 7.6 10.3 2.5 0 4.4-1 7.5-3.9 4.4-4.3 4.6-5.3 2.4-15.9-1.3-5.8 6.1-13 17.6-17.3 8-2.9 14.2-2.8 21.4.6 9.6 4.5 16.1 3.7 25.3-3.2 3.9-2.9 4.1-5.7 1.1-14.6-5.1-15-6.2-21-6.3-33.2 0-9.2.4-13.3 1.8-17.5 1-3 2.2-6 2.6-6.5.4-.6 1.7-3.7 2.8-7 4-11.9 4.6-12.7 12.2-18.6 2.5-1.8 5.3-4.3 6.3-5.4 3.5-3.8 8.5-16.1 10.1-24.6 2.9-15.3 1.6-45.2-2.5-60.4-1-3.4-4.2-10.5-8.3-18-6.3-11.6-20.2-25.6-37.1-37.1-7.2-4.9-23.6-13.7-30.8-16.5-2.9-1.1-6.1-2.4-7.2-2.9-7.7-3.4-30.3-9.2-47.5-12.2-8-1.4-56.6-2.2-57.4-1zm-21.3 159.1c10.6 3.7 25.7 13.5 29.9 19.4 3.2 4.4 3 11.3-.4 16.4-5.9 8.9-15.2 16.2-26 20.5-7.2 2.9-32.6 3.2-40.1.5-9.4-3.4-14.7-8-19.3-16.7-1.4-2.7-1.8-5.8-1.8-14-.1-9 .2-11.1 2.1-14.5 2.9-5.2 4-6.5 8.6-9.9 5.4-4.1 8.4-4.6 25.7-4.1 12.3.3 16.7.8 21.3 2.4zm146.3-.6c9.2 4.8 14.4 14.5 14.4 26.6 0 11.9-4.8 21.3-13.7 26.8-7.4 4.6-13.1 5.8-28.3 5.8-14.7 0-18.9-1-28.5-6.5-10.4-6.1-20.5-18.5-20.5-25.3 0-2.4 3.2-8.2 5.9-10.7 2.5-2.5 12.9-10 13.7-10 .4 0 1.5-.6 2.3-1.4 2.4-2 12.9-5.8 18.6-6.7 2.8-.4 11.3-.6 19-.5 10.9.1 14.7.6 17.1 1.9zm-88 51.5c1 .7 10.4 15.8 10.4 16.7 0 .3 1.8 3.4 4 7s4 7.2 4 8c0 .7.5 1.7 1 2 1.5.9 1.2 5.2-.6 6.9-.8.9-3 1.6-4.8 1.6-3.4 0-8.6-3.2-8.6-5.3-.1-3.3-6.1-7.7-10.5-7.7-2.6 0-3.7.9-11.9 10.2-1.9 2.2-3.4 2.8-6.3 2.8-4.6 0-6.3-1.4-6.3-5 0-3.3 7.1-17.2 16.2-31.8 3.8-6 4.1-6.2 8.1-6.2 2.3 0 4.7.4 5.3.8z"/><path d="M106.6 289.2c-2.2 3.1-2 12.2.5 23.8 3.1 14.5 3.7 19.5 3.8 32.5.2 22 3.2 27 17.6 29.5 3.9.6 8.4 1.7 10 2.4 1.7.7 5 2.1 7.5 3.1 2.5.9 5.4 2.1 6.5 2.5 1.1.5 4.5 1.6 7.5 2.5 6.5 1.9 10.7 3.9 17.5 8.1 9.8 6 11.2 6.4 21.5 6.4 9 0 10.1-.2 16.9-3.6 3.9-1.9 9.3-3.9 11.9-4.3 9.2-1.6 12.1-3.8 23.6-17.9 6.3-7.8 8.8-9.6 16.1-11.2 5.4-1.2 12.7-5.9 15.2-9.7 1.5-2.2 1.5-3.1.4-7.2-.8-2.8-1.5-13.1-1.8-26.1-.5-22.6-1.2-27.5-4.2-28.3-4.1-1-7.2 3.2-9 12.3-3.8 19.7-5.3 23-9.9 23-1.5-.1-4.5-.9-6.7-2-4.8-2.3-11.8-2.6-13.5-.5-.6.8-1.8 3.4-2.5 5.7-1.6 5.6-4.8 6.2-9.8 1.9-4.6-4.1-8.5-4.1-11.2-.1-2.7 4-7.6 4.2-9.3.5-1.4-3-4.2-3.2-6.7-.5-1.7 1.9-6.5 2.8-6.5 1.2 0-.4-1.5-1.7-3.3-3-4.7-3.1-8.8-2.9-12 .8-3.3 3.7-6.3 3.8-8.9.4-2.8-3.5-7.5-3-9.8 1.1-2 3.7-7.3 4.4-7.8 1-.8-5.3-1.4-6.6-4.2-8-3.3-1.7-10.6-2-11.5-.5-2.5 4.1-11.9-5.8-14.1-14.8-.7-3.1-1.3-6.8-1.4-8 0-5-6.5-15.2-9.6-15.2-.7 0-2 1-2.8 2.2z"/></svg>